<svg width="193" height="163" viewBox="0 0 193 163" fill="none" xmlns="http://www.w3.org/2000/svg">
<path d="M92.6776 33.8973L32.0133 150.328L41.4333 147.313L95.692 39.5493L147.69 147.313L155.603 150.328L98.3296 33.8973H92.6776Z" fill="#D9D9D9" stroke="#9926F1"/>
<path d="M106.996 3L143.5 70L134 76L103.605 23.347L95.692 39.5493L87.0257 23.347L64.4179 69.3162L55.3747 61.0267L83.6345 3L95.692 23.347L106.996 3Z" fill="#D9D9D9"/>
<path d="M46.3316 76.4754L55.3747 83.6345L25.6078 133.372L86 107L95.692 113.5L3 160.501L46.3316 76.4754Z" fill="#D9D9D9"/>
<path d="M141.5 90L161.631 134.879C100.268 110.619 37.4634 57.6467 23.9605 35.1311C26.2803 39.6196 30.6863 47.6209 35.7813 54.2444C62.9107 100.214 190.5 160.501 190.5 160.501L151 83.6345L141.5 90Z" fill="#D9D9D9"/>
<path d="M23.9605 35.1311C37.4634 57.6467 100.268 110.619 161.631 134.879L141.5 90L151 83.6345L190.5 160.501C190.5 160.501 62.9107 100.214 35.7813 54.2444C30.6863 47.6209 26.2803 39.6196 23.9605 35.1311ZM23.9605 35.1311C23.2023 33.8667 22.6173 32.6984 22.2166 31.6365C22.2166 31.6365 22.8492 32.9807 23.9605 35.1311ZM106.996 3L143.5 70L134 76L103.605 23.347L95.692 39.5493L87.0257 23.347L64.4179 69.3162L55.3747 61.0267L83.6345 3L95.692 23.347L106.996 3ZM46.3316 76.4754L55.3747 83.6345L25.6078 133.372L86 107L95.692 113.5L3 160.501L46.3316 76.4754Z" stroke="#9926F1" stroke-width="2"/>
<path d="M100.568 96.659L111.5 103.5C139.318 85.5385 148.435 78.661 189.174 50.6245C147.124 74.1024 126.183 84.2377 100.568 96.659Z" fill="#9926F2"/>
</svg>
